# xmcd CD database file
#
# Track frame offsets:
#	150
#	30980
#	53409
#	83336
#	110348
#	141543
#	170459
#	202163
#	234713
#	267508
#	290351
#
# Disc length: 4357 seconds
#
# Revision: 1
# Processed by: cddbd v1.5PL3 Copyright (c) Steve Scherf et al.
# Submitted via: CDex 1.50
#
DISCID=9611030b
DTITLE=Bill Evans - Immortal Concerts: Waltz for Debby: Live at the Village Vanguard
DYEAR=2000
DGENRE=Jazz
TTITLE0=Waltz For Debby
TTITLE1=My Foolish Heart
TTITLE2=Milestones
TTITLE3=Porgy (I Love You, Porgy)
TTITLE4=Gloria's Step
TTITLE5=My man's gone now
TTITLE6=Alice in Wonderland
TTITLE7=Detour Ahead
TTITLE8=My Romance
TTITLE9=Some Other Time
TTITLE10=All Of You
EXTD=YEAR: 2000
EXTT0=
EXTT1=
EXTT2=
EXTT3=
EXTT4=
EXTT5=
EXTT6=
EXTT7=
EXTT8=
EXTT9=
EXTT10=
PLAYORDER=
